<?xml version="1.0" ?><svg enable-background="new 0 0 192 188" id="instagram" version="1.1" viewBox="0 0 192 188" xml:space="preserve" xmlns="http://www.w3.org/2000/svg" xmlns:xlink="http://www.w3.org/1999/xlink"><g><path d="M161.6015,20h-19.2032C136.664,20,132,24.664,132,30.3985v19.2032C132,55.336,136.664,60,142.3983,60h19.2032   C167.336,60,172,55.336,172,49.6017V30.3985C172,24.664,167.336,20,161.6015,20z M164,49.6017C164,50.924,162.9255,52,161.6015,52   h-19.2032C141.0743,52,140,50.924,140,49.6017V30.3985C140,29.076,141.0743,28,142.3983,28h19.2032   c1.324,0,2.3985,1.076,2.3985,2.3985V49.6017z"/><path d="M151.1991,0H40.8007C18.3047,0,0,18.3577,0,40.924V68v8v71.0781C0,169.6425,18.3047,188,40.8007,188h110.3984   C173.6951,188,192,169.6425,192,147.0781V76v-8V40.924C192,18.3577,173.6951,0,151.1991,0z M184,147.0781   C184,165.2305,169.2851,180,151.1991,180H40.8007C22.7147,180,8,165.2305,8,147.0781V76h48.8827C46.4819,86.1733,40,100.336,40,116   c0,30.8789,25.1211,56,56,56c30.8787,0,56-25.1211,56-56c0-15.664-6.4821-29.8267-16.8829-40H184V147.0781z M144,116   c0,26.4669-21.5313,48-48,48c-26.4689,0-48-21.5331-48-48c0-26.4667,21.5311-48,48-48C122.4687,68,144,89.5333,144,116z    M124.6955,68C116.2903,62.956,106.496,60,96,60s-20.2905,2.956-28.6957,8H8V40.924C8,22.7697,22.7147,8,40.8007,8h110.3984   C169.2851,8,184,22.7697,184,40.924V68H124.6955z"/><path d="M60,116c0,19.8497,16.1483,36,36,36c19.8515,0,36-16.1503,36-36c0-19.8495-16.1485-36-36-36C76.1483,80,60,96.1505,60,116z    M124,116c0,15.4397-12.5625,28-28,28c-15.4377,0-28-12.5603-28-28c0-15.4395,12.5623-28,28-28C111.4375,88,124,100.5605,124,116z"/></g></svg>